<?xml version="1.0" encoding="UTF-8"?>
<svg version="1.1" xmlns="http://www.w3.org/2000/svg" width="512" height="512">
<path d="M0 0 C0.8962207 0.21430664 1.79244141 0.42861328 2.71582031 0.64941406 C45.34171461 11.12669112 84.29760513 36.04413763 111 71 C111.44424316 71.57363281 111.88848633 72.14726563 112.34619141 72.73828125 C138.32776242 106.60791071 151.4806064 147.87695986 151.375 190.375 C151.37418427 191.61840652 151.37418427 191.61840652 151.37335205 192.88693237 C151.33034762 207.21824364 150.25154964 220.99964949 147 235 C146.68651611 236.35617432 146.68651611 236.35617432 146.36669922 237.73974609 C138.22271182 271.59067201 120.48647924 301.5619222 97 327 C98.4160506 330.78518732 100.15421065 334.19749321 102.16796875 337.69921875 C102.80613525 338.81248535 103.44430176 339.92575195 104.10180664 341.07275391 C104.79695534 342.27771682 105.4921887 343.4826309 106.1875 344.6875 C106.90968618 345.94434799 107.6316059 347.20134912 108.35327148 348.45849609 C110.20743067 351.68637148 112.06563953 354.91189349 113.92541504 358.13653564 C115.57392183 360.99525204 117.22031688 363.85518454 118.8671875 366.71484375 C123.5829121 374.89768501 128.30694502 383.07571544 133.03822327 391.24957275 C134.05644187 393.00906275 135.07409146 394.76888057 136.09155273 396.52880859 C137.36073405 398.72381783 138.63099437 400.91820371 139.90258789 403.11181641 C141.05369719 405.10319232 142.19855938 407.09819556 143.33642578 409.09716797 C144.46861193 411.07276135 145.62427656 413.03504276 146.80029297 414.98486328 C147.35990723 415.93989746 147.91952148 416.89493164 148.49609375 417.87890625 C149.00197021 418.72138916 149.50784668 419.56387207 150.02905273 420.43188477 C151.25956712 423.68654426 150.86076892 425.66942604 150 429 C148.9375 430.875 148.9375 430.875 147 432 C139.16968259 432.60385431 131.70600025 430.75537169 124.0703125 429.19140625 C122.62934018 428.90174811 121.18824707 428.61269033 119.74703979 428.32420349 C116.74217072 427.72108604 113.73838095 427.11294311 110.73535156 426.50073242 C106.88322404 425.71552289 103.02928915 424.93966631 99.17460823 424.16709995 C96.20592446 423.57164887 93.23788899 422.97302186 90.27007675 422.37324333 C88.84839601 422.08599085 87.42659504 421.79933271 86.004673 421.51327705 C84.02480979 421.11412927 82.0458285 420.71061442 80.06689453 420.30688477 C78.94074738 420.07816177 77.81460022 419.84943878 76.65432739 419.61378479 C74 419 74 419 72 418 C71.75013588 418.96228012 71.75013588 418.96228012 71.495224 419.94400024 C69.50370745 427.44499553 67.16473107 434.79379153 64.69140625 442.1484375 C64.28341293 443.36399323 63.87541962 444.57954895 63.45506287 445.8319397 C62.59780221 448.38246746 61.737552 450.93196645 60.87573242 453.48095703 C59.77605643 456.7358016 58.68913627 459.99476052 57.60496616 463.25479698 C56.55948675 466.38907283 55.49944935 469.51838085 54.44140625 472.6484375 C53.863088 474.39536392 53.863088 474.39536392 53.27308655 476.17758179 C52.90267746 477.26286163 52.53226837 478.34814148 52.15063477 479.46630859 C51.83103287 480.41686127 51.51143097 481.36741394 51.18214417 482.34677124 C49.83942209 485.36040436 48.21158478 487.5605858 46 490 C44 490.6640625 44 490.6640625 42 490.625 C41.34 490.63789063 40.68 490.65078125 40 490.6640625 C35.36102263 489.12377704 32.91742759 483.34169971 30.63671875 479.30078125 C30.00499756 478.18751465 29.37327637 477.07424805 28.72241211 475.92724609 C28.22570511 475.04489288 28.22570511 475.04489288 27.71896362 474.14471436 C26.30504564 471.63313685 24.8814735 469.12707484 23.45863342 466.62054443 C22.72272457 465.32383464 21.98732624 464.02683499 21.25242615 462.72955322 C17.68042153 456.42563745 14.06368536 450.14789215 10.4375 443.875 C9.82640381 442.81700195 9.21530762 441.75900391 8.58569336 440.66894531 C7.34947219 438.5286998 6.11306286 436.38856296 4.87646484 434.24853516 C2.30642485 429.799283 -0.26271092 425.34955454 -2.81933594 420.89257812 C-4.09758452 418.68780945 -5.39624336 416.49473774 -6.71582031 414.31445312 C-10.18835119 408.52274862 -12.90231465 403.21351847 -14.53149414 396.63598633 C-16.5534047 392.27810821 -19.17086624 388.92511601 -23 386 C-26.36004898 384.8860543 -29.50243505 384.8207429 -33.0234375 384.83984375 C-34.42424309 384.80488045 -34.42424309 384.80488045 -35.85334778 384.76921082 C-45.58741848 384.60853439 -55.3029728 385.20568889 -65 386 C-65.32049316 386.57105469 -65.64098633 387.14210938 -65.97119141 387.73046875 C-72.75962857 399.81374282 -79.62688908 411.84560648 -86.62768555 423.80712891 C-90.92352534 431.14829302 -95.18888117 438.50641404 -99.4375 445.875 C-100.05197998 446.93759033 -100.66645996 448.00018066 -101.29956055 449.0949707 C-104.2579528 454.21593265 -107.20114199 459.34427792 -110.09886169 464.49978638 C-111.46067624 466.92046643 -112.83034539 469.33665711 -114.20071411 471.75250244 C-115.16751253 473.46460422 -116.12282562 475.1831754 -117.07788086 476.90185547 C-117.95778687 478.45090576 -117.95778687 478.45090576 -118.85546875 480.03125 C-119.36746826 480.94455078 -119.87946777 481.85785156 -120.40698242 482.79882812 C-122.14036017 485.19394441 -123.22150533 486.05988516 -126 487 C-129.5625 486.9375 -129.5625 486.9375 -133 486 C-135.52680837 482.51594478 -136.8885319 478.84696382 -138.25244141 474.78857422 C-138.66942291 473.55734833 -139.08640442 472.32612244 -139.51602173 471.05758667 C-139.96132867 469.72332922 -140.40650585 468.38902846 -140.8515625 467.0546875 C-141.31519267 465.67879273 -141.7793426 464.303073 -142.24398804 462.92752075 C-143.46203253 459.31698064 -144.67300884 455.70410867 -145.88250732 452.09069824 C-147.1152978 448.41188528 -148.35481793 444.73534191 -149.59375 441.05859375 C-152.40586334 432.70910147 -155.21392572 424.35822283 -158 416 C-166.04902705 416.57435485 -173.78913158 418.07506663 -181.671875 419.7578125 C-183.62935277 420.1662243 -185.58683325 420.5746236 -187.54446793 420.98228264 C-192.32801875 421.97992819 -197.10925682 422.98845192 -201.88916016 424.00341797 C-204.58777776 424.57599925 -207.28748816 425.14282107 -209.98858643 425.70358276 C-212.52136228 426.22981498 -215.05235279 426.76473342 -217.58123779 427.30935669 C-218.72973206 427.54645355 -219.87822632 427.78355042 -221.06152344 428.02783203 C-222.06616638 428.24021515 -223.07080933 428.45259827 -224.105896 428.67141724 C-227.98536459 429.1118736 -231.53280973 429.01185536 -234.8125 426.75 C-236.38230553 424.43660238 -236.72793118 422.79025836 -237 420 C-236.01147461 417.27783203 -236.01147461 417.27783203 -234.46484375 414.3828125 C-233.90522949 413.32739258 -233.34561523 412.27197266 -232.76904297 411.18457031 C-230.09724047 406.37488334 -227.36842797 401.60770557 -224.5625 396.875 C-223.32231764 394.76597714 -222.08275562 392.65658939 -220.84375 390.546875 C-219.89242187 388.92942383 -219.89242187 388.92942383 -218.921875 387.27929688 C-215.14820727 380.84028456 -211.43013986 374.36917054 -207.70654297 367.90112305 C-204.76265976 362.78832562 -201.81568245 357.67750435 -198.8495636 352.57757568 C-197.46120023 350.19010447 -196.0752493 347.8012368 -194.68942261 345.41229248 C-193.71070895 343.7274538 -192.72856435 342.04460962 -191.74633789 340.36181641 C-191.15328857 339.33878418 -190.56023926 338.31575195 -189.94921875 337.26171875 C-189.42674561 336.36412842 -188.90427246 335.46653809 -188.3659668 334.54174805 C-187.0418456 332.07786498 -185.98293426 329.61635269 -185 327 C-185.96486328 326.01386719 -185.96486328 326.01386719 -186.94921875 325.0078125 C-217.67612713 292.65908442 -238.9266698 246.60401742 -239.203125 201.546875 C-239.21022995 200.77298935 -239.2173349 199.9991037 -239.22465515 199.20176697 C-239.45621701 166.55522312 -235.25264834 136.81661671 -221 107 C-220.62504395 106.21431641 -220.25008789 105.42863281 -219.86376953 104.61914062 C-206.91303891 77.93017141 -187.60583869 54.03223789 -164 36 C-163.42636719 35.55575684 -162.85273438 35.11151367 -162.26171875 34.65380859 C-139.11596157 16.89857644 -112.36323425 5.3300177 -84 -1 C-82.94329102 -1.2477417 -82.94329102 -1.2477417 -81.86523438 -1.50048828 C-56.19165314 -7.27405876 -25.42258433 -6.22072175 0 0 Z M-93 17 C-93.77746582 17.21640137 -94.55493164 17.43280273 -95.35595703 17.65576172 C-118.6292633 24.34027525 -140.81085523 35.9958227 -159 52 C-159.81597656 52.70640625 -160.63195312 53.4128125 -161.47265625 54.140625 C-164.0220315 56.38698417 -166.51810956 58.67931997 -169 61 C-169.93585938 61.87011719 -170.87171875 62.74023438 -171.8359375 63.63671875 C-201.86794086 92.21259485 -222.44708467 135.30415681 -224.16113281 176.91137695 C-224.18062838 178.2702773 -224.19441492 179.62926898 -224.203125 180.98828125 C-224.21013931 181.72483948 -224.21715363 182.46139771 -224.22438049 183.22027588 C-224.24178719 185.58441352 -224.24823288 187.94830062 -224.25 190.3125 C-224.25067474 191.12057098 -224.25134949 191.92864197 -224.25204468 192.76119995 C-224.23610585 204.76522048 -223.77429915 216.27476325 -221 228 C-220.83371094 228.7537793 -220.66742188 229.50755859 -220.49609375 230.28417969 C-209.9404304 277.60873702 -180.30191618 318.0329846 -139.75 344.125 C-114.552762 359.93042663 -83.99253765 371.01074978 -54.01171875 371.203125 C-53.27529648 371.21018463 -52.53887421 371.21724426 -51.78013611 371.22451782 C-29.22200582 371.45189716 -29.22200582 371.45189716 -7 368 C-6.154375 367.80664062 -5.30875 367.61328125 -4.4375 367.4140625 C43.72114749 356.20472214 84.42823756 326.13402083 110.59887695 284.42651367 C134.45684707 245.35990704 142.89337742 196.43617913 132.64160156 151.64355469 C124.59480165 118.48877942 108.67913729 89.53832224 85 65 C83.74509766 63.65035156 83.74509766 63.65035156 82.46484375 62.2734375 C49.41787525 27.68128646 3.72733682 12.42739412 -43 10 C-59.98295093 10 -76.67815622 12.43906299 -93 17 Z M-173 338 C-173.55945313 339.0209375 -174.11890625 340.041875 -174.6953125 341.09375 C-180.1127439 350.93460984 -185.69454016 360.66825861 -191.37426758 370.35986328 C-196.23824131 378.66928906 -201.0375668 387.01422097 -205.8125 395.375 C-206.34426849 396.30539093 -206.34426849 396.30539093 -206.88677979 397.25457764 C-210.56204642 403.56312481 -210.56204642 403.56312481 -214 410 C-206.71465703 409.44050816 -199.71983995 408.23330447 -192.5859375 406.6796875 C-190.42196608 406.22222518 -188.25790071 405.76520713 -186.09375 405.30859375 C-182.72440727 404.59172279 -179.35604022 403.87089578 -175.98925781 403.14208984 C-172.7112909 402.43489972 -169.43025435 401.74375694 -166.1484375 401.0546875 C-165.14928314 400.83392548 -164.15012878 400.61316345 -163.12069702 400.38571167 C-157.36033252 399.18850887 -152.79253074 398.89800635 -147 400 C-146.827034 400.58954468 -146.65406799 401.17908936 -146.4758606 401.78649902 C-144.52476569 408.37077136 -142.41767978 414.89306294 -140.2421875 421.40625 C-139.8936673 422.45276733 -139.54514709 423.49928467 -139.18606567 424.57751465 C-138.45567249 426.76937001 -137.72453285 428.96097675 -136.99267578 431.15234375 C-135.86916342 434.51748171 -134.74889053 437.8836864 -133.62890625 441.25 C-132.91685926 443.3854809 -132.2046264 445.52089982 -131.4921875 447.65625 C-130.98907547 449.16862244 -130.98907547 449.16862244 -130.47579956 450.71154785 C-130.16522614 451.64011597 -129.85465271 452.56868408 -129.53466797 453.52539062 C-129.12521439 454.75255798 -129.12521439 454.75255798 -128.70748901 456.0045166 C-128.03327043 458.03564247 -128.03327043 458.03564247 -127 460 C-126.34 460 -125.68 460 -125 460 C-124.44054687 458.9790625 -123.88109375 457.958125 -123.3046875 456.90625 C-117.88599168 447.0630933 -112.3036803 437.32667336 -106.62133789 427.63354492 C-101.09089569 418.18773217 -95.65790641 408.68785492 -90.24169922 399.17626953 C-89.60119629 398.0520459 -88.96069336 396.92782227 -88.30078125 395.76953125 C-87.73528564 394.77542236 -87.16979004 393.78131348 -86.5871582 392.75708008 C-85.52556898 390.91297501 -84.40541003 389.10142641 -83.23120117 387.3269043 C-82.82490479 386.55902588 -82.4186084 385.79114746 -82 385 C-82.33 384.01 -82.66 383.02 -83 382 C-84.97225167 381.14997612 -84.97225167 381.14997612 -87.42578125 380.67578125 C-88.35745117 380.45631836 -89.28912109 380.23685547 -90.24902344 380.01074219 C-91.2599707 379.78032227 -92.27091797 379.54990234 -93.3125 379.3125 C-121.28536106 372.44303924 -145.77978437 359.19223061 -168.1640625 341.22265625 C-170.75619675 339.03867203 -170.75619675 339.03867203 -173 338 Z M78.875 342.375 C56.80601222 360.99207812 30.39065407 373.50994582 2.35009766 379.96020508 C1.40827637 380.18474365 0.46645508 380.40928223 -0.50390625 380.640625 C-1.34767822 380.83172852 -2.1914502 381.02283203 -3.06079102 381.21972656 C-4.02069946 381.60596191 -4.02069946 381.60596191 -5 382 C-6.35938968 384.95158027 -6.35938968 384.95158027 -4.8828125 387.49829102 C-4.30273438 388.49014404 -3.72265625 389.48199707 -3.125 390.50390625 C-2.47708496 391.6237793 -1.82916992 392.74365234 -1.16162109 393.89746094 C-0.44123942 395.1192342 0.27930526 396.34091138 1 397.5625 C1.73584303 398.82657862 2.47069371 400.09123538 3.20458984 401.35644531 C4.7196357 403.96534067 6.23999282 406.57102588 7.76464844 409.17431641 C10.46271496 413.78497494 13.12343553 418.41667306 15.78442383 423.04882812 C18.22482178 427.29322365 20.6781405 431.53008895 23.13134766 435.76708984 C24.75299929 438.57267005 26.36938353 441.38120515 27.98327637 444.19125366 C29.58887918 446.98405715 31.20132189 449.77291032 32.8125 452.5625 C33.40562988 453.59858398 33.99875977 454.63466797 34.60986328 455.70214844 C35.43139893 457.11995605 35.43139893 457.11995605 36.26953125 458.56640625 C36.75010986 459.40115479 37.23068848 460.23590332 37.72583008 461.09594727 C38.86573488 463.13896085 38.86573488 463.13896085 41 464 C41.36584953 462.89792709 41.36584953 462.89792709 41.73908997 461.77359009 C44.03817385 454.85410421 46.34722888 447.93806638 48.66759205 441.02569008 C49.86019515 437.47174571 51.04888399 433.91659042 52.22875977 430.35839844 C53.36730356 426.92532939 54.51595461 423.49579813 55.67172813 420.06849289 C56.11113744 418.75956748 56.5468753 417.4494037 56.97889137 416.13801956 C57.58405781 414.30314134 58.20345056 412.47297355 58.82348633 410.64306641 C59.17212234 409.59937897 59.52075836 408.55569153 59.87995911 407.4803772 C61 405 61 405 64 403 C70.69626901 402.35841764 77.11811443 404.07079614 83.64453125 405.44140625 C84.85066574 405.68793442 86.05680023 405.93446259 87.29948425 406.1884613 C91.79298911 407.10713042 96.28390406 408.03806212 100.77478027 408.96948242 C105.18821913 409.88410503 109.60363412 410.78874054 114.01953125 411.69140625 C115.19030716 411.93717911 116.36108307 412.18295197 117.56733704 412.43617249 C118.64573349 412.65647629 119.72412994 412.87678009 120.83520508 413.10375977 C121.78671951 413.3013942 122.73823395 413.49902863 123.71858215 413.70265198 C126.02658225 414.21965059 126.02658225 414.21965059 128 413 C119.5013201 398.09991412 110.98128101 383.21299904 102.39990234 368.36035156 C96.56622257 358.25945751 90.77575479 348.13410637 85 338 C82.84421564 338 80.34671085 341.09951727 78.875 342.375 Z " fill="#000000" transform="translate(300,13)"/>
<path d="M0 0 C3.55691306 3.10599139 6.97127886 6.34378779 10.37158203 9.61962891 C11.07669922 10.26158203 11.78181641 10.90353516 12.50830078 11.56494141 C29.77255549 27.74361418 41.08093097 50.79213226 47.62158203 73.18212891 C47.99126099 74.43932739 47.99126099 74.43932739 48.3684082 75.72192383 C51.71235001 87.68405785 52.73788307 99.41367502 52.68408203 111.80712891 C52.68192688 112.4862735 52.67977173 113.16541809 52.67755127 113.86514282 C52.62247686 124.71368794 52.03681863 135.08421903 49.37158203 145.61962891 C49.08154297 146.79428711 49.08154297 146.79428711 48.78564453 147.99267578 C39.3352648 185.12333441 15.92114398 217.19171641 -16.81591797 237.24462891 C-30.20887312 245.17803546 -44.5014575 250.9883139 -59.62841797 254.61962891 C-60.29147949 254.78333984 -60.95454102 254.94705078 -61.63769531 255.11572266 C-81.9954972 259.92097802 -105.34470554 259.71246914 -125.62841797 254.61962891 C-126.41297363 254.42626953 -127.1975293 254.23291016 -128.00585938 254.03369141 C-165.17219456 244.57237332 -197.36350176 221.10341781 -217.31591797 188.24462891 C-225.30691966 174.66096879 -230.67477644 160.87831176 -234.62841797 145.61962891 C-234.80920898 144.94834961 -234.99 144.27707031 -235.17626953 143.58544922 C-240.24659382 124.01984398 -239.83333887 99.09093628 -234.62841797 79.61962891 C-234.43505859 78.85360352 -234.24169922 78.08757812 -234.04248047 77.29833984 C-224.54315413 40.25389902 -201.43484715 8.02925765 -168.61279297 -11.85302734 C-155.03055595 -19.82984464 -140.8707542 -25.50268685 -125.62841797 -29.38037109 C-124.39607422 -29.70263672 -123.16373047 -30.02490234 -121.89404297 -30.35693359 C-79.75670979 -39.55835125 -32.82145531 -27.82196526 0 0 Z M-187.62841797 23.61962891 C-188.38380859 24.36599609 -189.13919922 25.11236328 -189.91748047 25.88134766 C-203.71607249 40.21065476 -212.7081564 58.39843474 -218.44091797 77.30712891 C-218.6360498 77.947229 -218.83118164 78.5873291 -219.03222656 79.24682617 C-228.04042955 110.95045318 -223.01582508 146.7661413 -207.30200195 175.51586914 C-190.15125302 205.37638986 -162.0153352 228.98330309 -128.52734375 238.19775391 C-94.19104444 247.06453218 -58.27323613 243.72118387 -27.30029297 225.88916016 C-8.17449845 214.32842883 7.79582678 198.72252383 19.37158203 179.61962891 C19.7421875 179.01860352 20.11279297 178.41757812 20.49462891 177.79833984 C36.66545329 151.14425951 42.41442385 116.18656584 35.46923828 85.74853516 C29.18973001 61.28424266 18.815806 41.02981968 1.37158203 22.61962891 C0.53884766 21.72244141 -0.29388672 20.82525391 -1.15185547 19.90087891 C-17.85670549 2.46121143 -38.58107039 -7.84671388 -61.62841797 -14.38037109 C-62.89427734 -14.74259766 -64.16013672 -15.10482422 -65.46435547 -15.47802734 C-110.86479407 -26.06489752 -155.81464579 -8.49239739 -187.62841797 23.61962891 Z " fill="#000000" transform="translate(348.62841796875,91.38037109375)"/>
<path d="M0 0 C3.45591922 2.5217349 4.58585388 6.39459452 6.07421875 10.24609375 C6.35925262 10.96556686 6.6442865 11.68503998 6.93795776 12.42631531 C7.54645665 13.96509411 8.15143464 15.50526907 8.75320435 17.04669189 C9.68950311 19.44262585 10.63703276 21.83383427 11.58764648 24.22412109 C14.29239327 31.03789445 16.96508806 37.86011431 19.5234375 44.73046875 C19.87704346 45.66383057 20.23064941 46.59719238 20.5949707 47.55883789 C21.22305054 49.22468374 21.83460973 50.89688741 22.42651367 52.57592773 C23.28711395 54.98926652 23.28711395 54.98926652 25 58 C28.26940494 58.96544847 31.54538108 59.17780327 34.9387207 59.37304688 C35.89353836 59.42980591 36.84835602 59.48656494 37.83210754 59.54504395 C38.85301987 59.60236694 39.87393219 59.65968994 40.92578125 59.71875 C41.98733932 59.78155151 43.0488974 59.84435303 44.1426239 59.90905762 C47.53239843 60.10934486 50.92241186 60.3050982 54.3125 60.5 C57.69185621 60.69519921 61.07113448 60.89146675 64.45024109 61.09094238 C66.55036164 61.21484998 68.65062826 61.33631402 70.75105286 61.45495605 C86.04469527 62.35516931 86.04469527 62.35516931 89.5 64.6875 C91.52176688 67.80439061 91.6584913 69.34171499 91 73 C87.69051778 77.46113355 84.00706025 80.79768928 79.5625 84.125 C74.5199875 87.99005604 69.61424754 91.96437221 64.8125 96.125 C49.70837242 109.19441839 49.70837242 109.19441839 44 113 C44.647128 119.78597575 46.2293906 126.12134851 48.01171875 132.69140625 C48.61078502 134.95748178 49.20906889 137.22376427 49.80664062 139.49023438 C50.74687927 143.03636867 51.6924463 146.58076085 52.65161133 150.12182617 C53.57951372 153.55761145 54.48477105 156.99873025 55.38671875 160.44140625 C55.6782634 161.49574356 55.96980804 162.55008087 56.27018738 163.6363678 C57.78788816 169.50615587 58.49345504 173.37453966 56 179 C53.6666551 181.00000992 52.44006537 181.02437488 49.390625 180.85546875 C44.79358011 179.69561526 41.42707095 177.40986481 37.5 174.8125 C35.81647772 173.7238478 34.1328808 172.63531103 32.44921875 171.546875 C31.56669434 170.97130859 30.68416992 170.39574219 29.77490234 169.80273438 C24.97745738 166.68604129 20.14220442 163.62885581 15.3125 160.5625 C13.51686342 159.41806863 11.72128777 158.27354166 9.92578125 157.12890625 C9.09127441 156.60441895 8.25676758 156.07993164 7.39697266 155.53955078 C5.82685264 154.53107891 4.27802263 153.48847503 2.75537109 152.40966797 C2.06652832 151.93287598 1.37768555 151.45608398 0.66796875 150.96484375 C0.07653076 150.53679443 -0.51490723 150.10874512 -1.12426758 149.66772461 C-3.07590136 148.76828358 -3.07590136 148.76828358 -5.41894531 149.69067383 C-8.02561134 151.01299221 -10.49183854 152.42607547 -12.96484375 153.984375 C-13.91955566 154.58362793 -14.87426758 155.18288086 -15.85791016 155.80029297 C-16.8741748 156.44369629 -17.89043945 157.08709961 -18.9375 157.75 C-20.5160376 158.7402417 -20.5160376 158.7402417 -22.12646484 159.75048828 C-27.53265717 163.14864324 -32.91247714 166.58318618 -38.26171875 170.0703125 C-39.24857666 170.71000977 -40.23543457 171.34970703 -41.25219727 172.00878906 C-43.12960736 173.22837968 -45.00147378 174.45655842 -46.86694336 175.69433594 C-54.77005221 180.82189032 -54.77005221 180.82189032 -60 181 C-62.25 180.5 -62.25 180.5 -64 179 C-67.15243189 172.13070876 -65.06133881 166.4585246 -63.1328125 159.42578125 C-62.81923798 158.22439011 -62.50566345 157.02299896 -62.18258667 155.78520203 C-61.35007628 152.60548669 -60.50288028 149.43020556 -59.64746094 146.2565918 C-58.44392709 141.77820859 -57.26651156 137.29290504 -56.08883667 132.80766296 C-55.4611458 130.42310089 -54.82700998 128.04022417 -54.18582153 125.65925598 C-53.89907562 124.58101059 -53.61232971 123.5027652 -53.31689453 122.3918457 C-53.06215363 121.44477249 -52.80741272 120.49769928 -52.54495239 119.52192688 C-51.85919271 116.77839523 -51.85919271 116.77839523 -52 113 C-54.05237405 110.83123499 -54.05237405 110.83123499 -56.8125 108.8125 C-57.82699219 108.0184375 -58.84148437 107.224375 -59.88671875 106.40625 C-60.91410156 105.6121875 -61.94148438 104.818125 -63 104 C-64.71351052 102.61052702 -66.42191533 101.21473254 -68.125 99.8125 C-69.01960938 99.0803125 -69.91421875 98.348125 -70.8359375 97.59375 C-74.81031225 94.33700694 -78.78111442 91.07592966 -82.75 87.8125 C-83.45914551 87.23024658 -84.16829102 86.64799316 -84.89892578 86.0480957 C-86.93720884 84.37084312 -88.97028636 82.68761028 -91 81 C-92.00836914 80.163479 -92.00836914 80.163479 -93.03710938 79.31005859 C-93.66939453 78.77848145 -94.30167969 78.2469043 -94.953125 77.69921875 C-95.79858887 76.99091919 -95.79858887 76.99091919 -96.66113281 76.26831055 C-98.75748646 74.28243214 -98.9980978 73.01750024 -99.3125 70.125 C-99 67 -99 67 -97.65234375 64.875 C-93.49256314 61.93435981 -89.23984713 62.13600619 -84.25 61.875 C-83.17266602 61.8035376 -82.09533203 61.7320752 -80.98535156 61.65844727 C-77.324496 61.42013457 -73.66260836 61.20956826 -70 61 C-66.40767107 60.78326872 -62.81572258 60.56040091 -59.22381592 60.33679199 C-55.66685965 60.11569928 -52.10981022 59.89953593 -48.55175781 59.69677734 C-47.25077148 59.62023926 -45.94978516 59.54370117 -44.609375 59.46484375 C-43.45405273 59.399021 -42.29873047 59.33319824 -41.10839844 59.26538086 C-40.08262695 59.17780518 -39.05685547 59.09022949 -38 59 C-36.74490128 58.90252724 -36.74490128 58.90252724 -35.46444702 58.80308533 C-32.82170833 58.22806415 -32.82170833 58.22806415 -31.58370972 55.81192017 C-31.02769577 54.36322037 -31.02769577 54.36322037 -30.46044922 52.88525391 C-29.8148555 51.24817978 -29.8148555 51.24817978 -29.15621948 49.57803345 C-28.71021393 48.38954803 -28.26420837 47.20106262 -27.8046875 45.9765625 C-27.08034255 44.12453559 -26.35599019 42.27251154 -25.63119698 40.42066002 C-24.61972501 37.8218041 -23.62655148 35.21610725 -22.63317871 32.61029053 C-20.89387823 28.0559332 -19.13117185 23.51064223 -17.36062622 18.96835327 C-16.41974493 16.54911909 -15.48788892 14.12635193 -14.56588745 11.69985962 C-14.14179596 10.60217255 -13.71770447 9.50448547 -13.28076172 8.37353516 C-12.91167694 7.4061441 -12.54259216 6.43875305 -12.162323 5.44204712 C-9.36016385 -0.44530493 -6.20559345 -1.51973717 0 0 Z M-5 29 C-5.46374023 30.19077148 -5.92748047 31.38154297 -6.40527344 32.60839844 C-8.13167713 37.03316331 -9.87185726 41.45240131 -11.61621094 45.87011719 C-12.36866967 47.78140127 -13.11740466 49.69415579 -13.86230469 51.60839844 C-14.93485056 54.36269624 -16.02076106 57.11139494 -17.109375 59.859375 C-17.43871033 60.71368103 -17.76804565 61.56798706 -18.10736084 62.44818115 C-21.43783901 70.77909278 -21.43783901 70.77909278 -25 73 C-28.39664159 73.71259117 -31.77303028 73.8853287 -35.234375 74.046875 C-36.22753723 74.10780334 -37.22069946 74.16873169 -38.24395752 74.23150635 C-41.41190019 74.42182836 -44.58058503 74.58622208 -47.75 74.75 C-49.89983917 74.87459553 -52.0495813 75.00087758 -54.19921875 75.12890625 C-59.46517701 75.43883929 -64.73197892 75.72750626 -70 76 C-70 76.99 -70 77.98 -70 79 C-68.3560342 80.67019223 -68.3560342 80.67019223 -66.0625 82.3125 C-65.16015625 83.00730469 -64.2578125 83.70210937 -63.328125 84.41796875 C-62.80927734 84.81677246 -62.29042969 85.21557617 -61.75585938 85.62646484 C-58.22041962 88.3920911 -54.77325866 91.26693026 -51.3125 94.125 C-50.60037354 94.71063721 -49.88824707 95.29627441 -49.15454102 95.8996582 C-47.76612213 97.0434885 -46.38449728 98.19562237 -45.01025391 99.35644531 C-43.02829521 101.01953236 -43.02829521 101.01953236 -40.92333984 102.44824219 C-36.20067606 105.89736532 -36.20067606 105.89736532 -35.63972473 108.97956848 C-35.76505434 114.37061836 -36.52327965 119.20646251 -37.96875 124.39453125 C-38.1685144 125.1491716 -38.36827881 125.90381195 -38.57409668 126.68132019 C-39.20564211 129.06131596 -39.85180417 131.43699037 -40.5 133.8125 C-41.14597651 136.20637043 -41.78869107 138.60101961 -42.42590332 140.99723816 C-42.82094633 142.48011323 -43.22134071 143.96157599 -43.62780762 145.44136047 C-44.52701644 148.79180791 -45 151.49792269 -45 155 C-39.84827312 153.27583334 -35.53321405 150.29546621 -31 147.375 C-29.29835076 146.29269564 -27.59652714 145.2106654 -25.89453125 144.12890625 C-23.57406678 142.64799778 -21.25526542 141.16486523 -18.94287109 139.67138672 C-17.19615012 138.54357184 -15.44267613 137.42708939 -13.6875 136.3125 C-12.23923828 135.37857422 -12.23923828 135.37857422 -10.76171875 134.42578125 C-7.66371912 132.82638964 -5.47817977 132.25090615 -2 132 C0.74951172 133.13696289 0.74951172 133.13696289 3.5546875 134.91015625 C4.5972168 135.55871582 5.63974609 136.20727539 6.71386719 136.87548828 C7.79829102 137.57657715 8.88271484 138.27766602 10 139 C11.0818457 139.68690918 12.16369141 140.37381836 13.27832031 141.08154297 C17.14221924 143.54877597 20.98821228 146.04270354 24.82714844 148.54858398 C26.46819078 149.61828473 28.11294077 150.68229084 29.7578125 151.74609375 C30.7183252 152.37185303 31.67883789 152.9976123 32.66845703 153.64233398 C34.83838414 155.16773566 34.83838414 155.16773566 37 155 C36.29110174 146.25692143 33.6910428 137.9067031 31.36303711 129.48413086 C27.06443993 113.8654634 27.06443993 113.8654634 28 107 C29.8359375 104.43359375 29.8359375 104.43359375 32.375 102.4375 C33.29667969 101.68984375 34.21835937 100.9421875 35.16796875 100.171875 C36.56982422 99.09679687 36.56982422 99.09679687 38 98 C39.56258428 96.7292703 41.1250857 95.45843869 42.6875 94.1875 C44.45784719 92.79105014 46.22875324 91.39530867 48 90 C50.71139201 87.83715148 53.41805844 85.66841437 56.125 83.5 C57.44002775 82.44782115 58.75512572 81.39573005 60.0703125 80.34375 C61.03710938 79.5703125 62.00390625 78.796875 63 78 C62.67 77.34 62.34 76.68 62 76 C60.11259043 75.61581025 60.11259043 75.61581025 57.8190918 75.56103516 C56.93114426 75.51403473 56.04319672 75.4670343 55.12834167 75.41860962 C53.67842583 75.3544838 53.67842583 75.3544838 52.19921875 75.2890625 C50.16989446 75.17758128 48.14059836 75.06558593 46.11132812 74.953125 C42.89880389 74.78610027 39.68620471 74.62493901 36.47290039 74.47363281 C33.38056744 74.32426083 30.29017609 74.15184216 27.19921875 73.9765625 C25.75841194 73.91850937 25.75841194 73.91850937 24.28849792 73.85928345 C17.75754758 73.47135264 17.75754758 73.47135264 14.60571289 71.51025391 C12.24317306 67.8168322 10.6830987 63.94166298 9.109375 59.859375 C8.75989807 58.97719299 8.41042114 58.09501099 8.050354 57.18609619 C6.9404342 54.37781068 5.84506868 51.56410537 4.75 48.75 C3.99834992 46.84076994 3.2457563 44.93191106 2.4921875 43.0234375 C0.65049703 38.35318886 -1.17816457 33.67802773 -3 29 C-3.66 29 -4.32 29 -5 29 Z " fill="#000000" transform="translate(260,114)"/>
</svg>
